<?xml version="1.0" ?>
<!-- Uploaded to: SVG Repo, www.svgrepo.com, Generator: SVG Repo Mixer Tools -->
<svg width="800px" height="800px" viewBox="0 0 64 64" xmlns="http://www.w3.org/2000/svg">
<g id="a"/>
<g id="b">
<path d="M30.02,5c-8.18,0-14.81,6.63-14.81,14.81,0,5.56,3.12,10.66,8.07,13.19l8.05,6.25,10.43-10.41c1.99-2.59,3.07-5.76,3.07-9.03,0-8.18-6.63-14.81-14.81-14.81Z" fill="#f2d865" fill-rule="evenodd"/>
<path d="M30.02,5c-.56,0-1.12,.03-1.66,.1,7.4,.83,13.15,7.1,13.15,14.71,0,3.27-1.08,6.44-3.07,9.03l-8.97,8.95,1.87,1.45,10.43-10.41c1.99-2.59,3.07-5.76,3.07-9.03,0-8.18-6.63-14.81-14.81-14.81h0Z" fill="#f2d865" fill-rule="evenodd"/>
<path d="M14.44,33c-2.4,0-4.33,1.93-4.33,4.33s1.93,4.33,4.33,4.33v8.67c-2.4,0-4.33,1.94-4.33,4.34s1.93,4.33,4.33,4.33h20.3c1,0,1.93-.34,2.66-.91l-1.92-18.93-6.9-6.17H14.44Z" fill="#f2d865" fill-rule="evenodd"/>
<path d="M26.04,50.33H14.45c-2.4,0-4.34-1.93-4.34-4.33s1.93-4.33,4.34-4.33h9.94l1.65,8.67Z" fill="#e9c03d" fill-rule="evenodd"/>
<circle cx="39.08" cy="43.39" fill="#f5e680" r="14.81" transform="translate(-15.15 21.73) rotate(-26.22)"/>
<circle cx="39.08" cy="43.39" fill="#ebb680" r="8.12"/>
<circle cx="30.02" cy="19.81" fill="#ebb680" r="8.12" transform="translate(8.18 48.38) rotate(-86.02)"/>
<path d="M39.08,28.58c-.67,0-1.33,.05-1.99,.14,7.32,1.01,12.78,7.27,12.78,14.67,0,7.4-5.47,13.66-12.8,14.66,.67,.09,1.34,.14,2.01,.14,8.18,0,14.81-6.63,14.81-14.81s-6.63-14.81-14.81-14.81Z" fill="#f2d865" fill-rule="evenodd"/>
<path d="M39.08,35.27c-.46,0-.9,.04-1.34,.11,3.85,.64,6.79,3.98,6.79,8.01s-2.94,7.37-6.79,8.01c.43,.07,.88,.11,1.34,.11,4.49,0,8.12-3.64,8.12-8.12s-3.63-8.12-8.12-8.12Z" fill="#e6a361" fill-rule="evenodd"/>
<path d="M30.02,11.69c-.44,0-.87,.04-1.29,.1,3.87,.62,6.83,3.97,6.83,8.02s-2.96,7.4-6.83,8.02c.42,.07,.85,.1,1.29,.1,4.49,0,8.12-3.63,8.12-8.12s-3.64-8.12-8.12-8.12Z" fill="#e6a361" fill-rule="evenodd"/>
<path d="M43.33,28.23c1.59-2.52,2.5-5.44,2.5-8.42,0-8.72-7.09-15.81-15.81-15.81s-15.81,7.09-15.81,15.81c0,4.81,2.17,9.22,5.79,12.19h-5.56c-2.94,0-5.33,2.39-5.33,5.33,0,1.79,.89,3.37,2.25,4.33-1.36,.97-2.25,2.55-2.25,4.33s.89,3.37,2.25,4.33c-1.35,.97-2.25,2.54-2.25,4.33,0,2.94,2.39,5.33,5.33,5.33h20.3c1.07,0,2.08-.35,2.95-.94,.46,.04,.91,.14,1.38,.14,8.72,0,15.81-7.09,15.81-15.81,0-7.24-4.91-13.29-11.56-15.15Zm-27.12-8.42c0-7.61,6.19-13.81,13.81-13.81s13.81,6.19,13.81,13.81c0,2.86-.93,5.66-2.59,7.99-.71-.1-1.42-.22-2.16-.22-4.23,0-8.07,1.7-10.91,4.42h-4.62c-4.53-2.4-7.34-7.04-7.34-12.19Zm-5.1,17.52c0-1.84,1.5-3.33,3.33-3.33h12c-1.44,1.94-2.46,4.19-2.89,6.67H14.44c-1.84,0-3.33-1.5-3.33-3.33Zm3.33,12c-1.84,0-3.33-1.5-3.33-3.33s1.5-3.33,3.33-3.33h8.91c-.01,.25-.07,.48-.07,.72,0,2.1,.43,4.11,1.18,5.94H14.44Zm0,8.67c-1.84,0-3.33-1.5-3.33-3.33s1.5-3.33,3.33-3.33h11.05c1.74,2.97,4.38,5.35,7.6,6.67H14.44Zm24.64-.8c-7.61,0-13.81-6.19-13.81-13.81s6.15-13.81,13.81-13.81,13.81,6.19,13.81,13.81-6.19,13.81-13.81,13.81Z"/>
<path d="M39.08,34.27c-5.03,0-9.12,4.09-9.12,9.12s4.09,9.12,9.12,9.12,9.12-4.09,9.12-9.12-4.09-9.12-9.12-9.12Zm0,16.24c-3.93,0-7.12-3.2-7.12-7.12s3.2-7.12,7.12-7.12,7.12,3.19,7.12,7.12-3.19,7.12-7.12,7.12Z"/>
<path d="M30.02,28.93c5.03,0,9.12-4.09,9.12-9.12s-4.09-9.12-9.12-9.12-9.12,4.09-9.12,9.12,4.09,9.12,9.12,9.12Zm0-16.24c3.93,0,7.12,3.2,7.12,7.12s-3.2,7.12-7.12,7.12-7.12-3.19-7.12-7.12,3.19-7.12,7.12-7.12Z"/>
<path d="M30.02,20.81c.4,0,.72,.32,.72,.72s-.32,.72-.72,.72c-.19,0-.37-.08-.51-.21-.39-.39-1.02-.39-1.41,0s-.39,1.02,0,1.41c.27,.27,.58,.46,.92,.6v.28c0,.55,.45,1,1,1s1-.45,1-1v-.29c1.01-.4,1.72-1.37,1.72-2.52,0-1.5-1.22-2.72-2.72-2.72-.4,0-.72-.32-.72-.72s.32-.72,.72-.72c.19,0,.38,.08,.51,.21,.39,.39,1.02,.39,1.41,0s.39-1.02,0-1.41c-.27-.27-.58-.46-.92-.6v-.28c0-.55-.45-1-1-1s-1,.45-1,1v.29c-1,.4-1.72,1.37-1.72,2.52,0,1.5,1.22,2.72,2.72,2.72Z"/>
<path d="M39.08,42.39c-.4,0-.72-.32-.72-.72s.32-.72,.72-.72c.19,0,.37,.07,.51,.21,.39,.39,1.02,.39,1.41,0s.39-1.02,0-1.41c-.27-.27-.58-.47-.92-.6v-.28c0-.55-.45-1-1-1s-1,.45-1,1v.29c-1,.4-1.72,1.37-1.72,2.52,0,1.5,1.22,2.72,2.72,2.72,.4,0,.72,.32,.72,.72s-.32,.72-.72,.72c-.19,0-.37-.08-.51-.21-.39-.39-1.02-.39-1.41,0s-.39,1.02,0,1.41c.27,.27,.58,.46,.92,.6v.28c0,.55,.45,1,1,1s1-.45,1-1v-.29c1-.4,1.72-1.37,1.72-2.52,0-1.5-1.22-2.72-2.72-2.72Z"/>
<circle cx="39.08" cy="31.92" r="1"/>
<circle cx="39.08" cy="54.85" r="1"/>
<circle cx="50.55" cy="43.39" r="1"/>
<circle cx="27.62" cy="43.39" r="1"/>
<path d="M47.9,35.99c.39-.39,.39-1.03,0-1.41-.39-.39-1.03-.39-1.41,0-.39,.39-.39,1.03,0,1.41s1.03,.39,1.41,0Z"/>
<path d="M30.27,50.79c-.39,.39-.39,1.03,0,1.41,.39,.39,1.03,.39,1.41,0,.39-.39,.39-1.03,0-1.41-.39-.39-1.03-.39-1.41,0Z"/>
<path d="M47.19,50.49c-.27,0-.52,.11-.71,.29-.39,.39-.39,1.03,0,1.41,.19,.19,.44,.29,.71,.29s.52-.11,.71-.29c.39-.39,.39-1.03,0-1.41-.19-.19-.44-.29-.71-.29Z"/>
<path d="M30.98,36.28c.26,0,.52-.11,.71-.29,.39-.39,.39-1.03,0-1.41-.19-.19-.44-.29-.71-.29s-.52,.11-.71,.29c-.39,.39-.39,1.03,0,1.41,.19,.19,.44,.29,.71,.29Z"/>
<circle cx="30.02" cy="8.34" r="1"/>
<circle cx="41.48" cy="19.81" r="1"/>
<circle cx="18.55" cy="19.81" r="1"/>
<path d="M38.83,12.41c.39-.39,.39-1.03,0-1.41-.39-.39-1.03-.39-1.41,0-.39,.39-.39,1.03,0,1.41s1.03,.39,1.41,0Z"/>
<path d="M21.2,27.21c-.39,.39-.39,1.03,0,1.41,.39,.39,1.03,.39,1.41,0,.39-.39,.39-1.03,0-1.41-.39-.39-1.03-.39-1.41,0Z"/>
<path d="M21.91,12.7c.27,0,.52-.11,.71-.29,.39-.39,.39-1.03,0-1.41-.19-.19-.44-.29-.71-.29s-.52,.11-.71,.29c-.39,.39-.39,1.03,0,1.41,.19,.19,.44,.29,.71,.29Z"/>
</g>
<g id="c"/>
<g id="d"/>
<g id="e"/>
<g id="f"/>
<g id="g"/>
<g id="h"/>
<g id="i"/>
<g id="j"/>
<g id="k"/>
<g id="l"/>
<g id="m"/>
<g id="n"/>
<g id="o"/>
<g id="p"/>
<g id="q"/>
<g id="r"/>
<g id="s"/>
<g id="t"/>
<g id="u"/>
<g id="v"/>
<g id="w"/>
<g id="x"/>
<g id="y"/>
<g id="a`"/>
<g id="aa"/>
<g id="ab"/>
<g id="ac"/>
<g id="ad"/>
<g id="ae"/>
<g id="af"/>
<g id="ag"/>
<g id="ah"/>
<g id="ai"/>
<g id="aj"/>
<g id="ak"/>
<g id="al"/>
<g id="am"/>
<g id="an"/>
<g id="ao"/>
<g id="ap"/>
<g id="aq"/>
<g id="ar"/>
<g id="as"/>
<g id="at"/>
<g id="au"/>
<g id="av"/>
<g id="aw"/>
<g id="ax"/>
</svg>