<svg width="10" height="13" viewBox="0 0 10 13" fill="none" xmlns="http://www.w3.org/2000/svg">
<path fill-rule="evenodd" clip-rule="evenodd" d="M1.53502 1.83503C2.454 0.916055 3.7004 0.39978 5.00002 0.39978C6.29965 0.39978 7.54605 0.916055 8.46502 1.83503C9.384 2.75401 9.90028 4.0004 9.90028 5.30003C9.90028 6.59966 9.384 7.84606 8.46502 8.76503L5.00002 12.23L1.53502 8.76503C1.07996 8.31002 0.718988 7.76982 0.472709 7.17529C0.226429 6.58077 0.0996704 5.94355 0.0996704 5.30003C0.0996704 4.65651 0.226429 4.01929 0.472709 3.42477C0.718988 2.83024 1.07996 2.29004 1.53502 1.83503V1.83503ZM5.00002 6.70003C5.37133 6.70003 5.72742 6.55253 5.98997 6.28998C6.25253 6.02743 6.40003 5.67133 6.40003 5.30003C6.40003 4.92873 6.25253 4.57263 5.98997 4.31008C5.72742 4.04753 5.37133 3.90003 5.00002 3.90003C4.62872 3.90003 4.27263 4.04753 4.01008 4.31008C3.74752 4.57263 3.60002 4.92873 3.60002 5.30003C3.60002 5.67133 3.74752 6.02743 4.01008 6.28998C4.27263 6.55253 4.62872 6.70003 5.00002 6.70003Z" fill="white"/>
</svg>
