<svg width="24" height="24" viewBox="0 0 24 24" fill="none" xmlns="http://www.w3.org/2000/svg">
<path fill-rule="evenodd" clip-rule="evenodd" d="M3.80577 6.20635C4.7059 5.30649 5.92658 4.80097 7.19937 4.80097C8.47215 4.80097 9.69283 5.30649 10.593 6.20635L11.9994 7.61155L13.4058 6.20635C13.8486 5.7479 14.3782 5.38223 14.9638 5.13066C15.5494 4.8791 16.1793 4.74669 16.8166 4.74115C17.454 4.73561 18.086 4.85706 18.6759 5.09841C19.2659 5.33975 19.8018 5.69617 20.2525 6.14685C20.7031 6.59754 21.0596 7.13347 21.3009 7.72337C21.5423 8.31327 21.6637 8.94534 21.6582 9.58268C21.6526 10.22 21.5202 10.8499 21.2687 11.4355C21.0171 12.0211 20.6514 12.5508 20.193 12.9936L11.9994 21.1884L3.80577 12.9936C2.9059 12.0934 2.40039 10.8727 2.40039 9.59995C2.40039 8.32716 2.9059 7.10648 3.80577 6.20635Z" fill="#111111"/>
</svg>
