<svg width="10" height="10" viewBox="0 0 10 10" fill="none" xmlns="http://www.w3.org/2000/svg">
<path fill-rule="evenodd" clip-rule="evenodd" d="M5 10C6.32608 10 7.59785 9.47322 8.53553 8.53553C9.47322 7.59785 10 6.32608 10 5C10 3.67392 9.47322 2.40215 8.53553 1.46447C7.59785 0.526784 6.32608 0 5 0C3.67392 0 2.40215 0.526784 1.46447 1.46447C0.526784 2.40215 0 3.67392 0 5C0 6.32608 0.526784 7.59785 1.46447 8.53553C2.40215 9.47322 3.67392 10 5 10V10ZM5.625 2.5C5.625 2.33424 5.55915 2.17527 5.44194 2.05806C5.32473 1.94085 5.16576 1.875 5 1.875C4.83424 1.875 4.67527 1.94085 4.55806 2.05806C4.44085 2.17527 4.375 2.33424 4.375 2.5V5C4.37504 5.16575 4.44091 5.32469 4.55813 5.44187L6.32563 7.21C6.38369 7.26807 6.45263 7.31413 6.5285 7.34556C6.60437 7.37699 6.68569 7.39316 6.76781 7.39316C6.84993 7.39316 6.93125 7.37699 7.00712 7.34556C7.08299 7.31413 7.15193 7.26807 7.21 7.21C7.26807 7.15193 7.31413 7.08299 7.34556 7.00712C7.37699 6.93125 7.39316 6.84993 7.39316 6.76781C7.39316 6.68569 7.37699 6.60437 7.34556 6.5285C7.31413 6.45263 7.26807 6.38369 7.21 6.32563L5.625 4.74125V2.5Z" fill="white"/>
</svg>
