<svg width="18" height="18" viewBox="0 0 18 18" fill="none" xmlns="http://www.w3.org/2000/svg">
<path d="M8.99999 6.65672C7.70976 6.65672 6.65683 7.70965 6.65683 8.99989C6.65683 10.2901 7.70976 11.3431 8.99999 11.3431C10.2902 11.3431 11.3432 10.2901 11.3432 8.99989C11.3432 7.70965 10.2902 6.65672 8.99999 6.65672ZM16.0277 8.99989C16.0277 8.02957 16.0365 7.06805 15.982 6.0995C15.9275 4.9745 15.6709 3.97606 14.8482 3.1534C14.0238 2.32899 13.0271 2.07411 11.9021 2.01961C10.9318 1.96512 9.9703 1.97391 9.00175 1.97391C8.03144 1.97391 7.06991 1.96512 6.10136 2.01961C4.97636 2.07411 3.97792 2.33075 3.15527 3.1534C2.33085 3.97782 2.07597 4.9745 2.02148 6.0995C1.96698 7.06981 1.97577 8.03133 1.97577 8.99989C1.97577 9.96844 1.96698 10.9317 2.02148 11.9003C2.07597 13.0253 2.33261 14.0237 3.15527 14.8464C3.97968 15.6708 4.97636 15.9257 6.10136 15.9802C7.07167 16.0347 8.0332 16.0259 9.00175 16.0259C9.97206 16.0259 10.9336 16.0347 11.9021 15.9802C13.0271 15.9257 14.0256 15.669 14.8482 14.8464C15.6727 14.022 15.9275 13.0253 15.982 11.9003C16.0383 10.9317 16.0277 9.9702 16.0277 8.99989ZM8.99999 12.6052C7.00487 12.6052 5.39472 10.995 5.39472 8.99989C5.39472 7.00477 7.00487 5.39461 8.99999 5.39461C10.9951 5.39461 12.6053 7.00477 12.6053 8.99989C12.6053 10.995 10.9951 12.6052 8.99999 12.6052ZM12.7529 6.08895C12.2871 6.08895 11.9109 5.71278 11.9109 5.24696C11.9109 4.78114 12.2871 4.40497 12.7529 4.40497C13.2187 4.40497 13.5949 4.78114 13.5949 5.24696C13.5951 5.35757 13.5734 5.46712 13.5311 5.56934C13.4888 5.67156 13.4268 5.76443 13.3486 5.84265C13.2704 5.92086 13.1775 5.98288 13.0753 6.02514C12.9731 6.06741 12.8635 6.08909 12.7529 6.08895Z" fill="white" fill-opacity="0.8"/>
</svg>
