<svg width="20" height="17" viewBox="0 0 20 17" fill="none" xmlns="http://www.w3.org/2000/svg">
<path d="M2.31804 2.31804C1.90017 2.7359 1.5687 3.23198 1.34255 3.77795C1.1164 4.32392 1 4.90909 1 5.50004C1 6.09099 1.1164 6.67616 1.34255 7.22213C1.5687 7.7681 1.90017 8.26418 2.31804 8.68204L10 16.364L17.682 8.68204C18.526 7.83812 19.0001 6.69352 19.0001 5.50004C19.0001 4.30656 18.526 3.16196 17.682 2.31804C16.8381 1.47412 15.6935 1.00001 14.5 1.00001C13.3066 1.00001 12.162 1.47412 11.318 2.31804L10 3.63604L8.68204 2.31804C8.26417 1.90017 7.7681 1.5687 7.22213 1.34255C6.67616 1.1164 6.09099 1 5.50004 1C4.90909 1 4.32392 1.1164 3.77795 1.34255C3.23198 1.5687 2.7359 1.90017 2.31804 2.31804V2.31804Z" stroke="#121212" stroke-linecap="round" stroke-linejoin="round"/>
</svg>
