<svg width="18" height="18" viewBox="0 0 18 18" fill="none" xmlns="http://www.w3.org/2000/svg">
<path d="M9 1.125C4.65117 1.125 1.125 4.65117 1.125 9C1.125 12.2238 3.06563 14.9941 5.83945 16.2141C5.81836 15.6656 5.83594 15.0047 5.97656 14.407C6.12773 13.7672 6.98906 10.1145 6.98906 10.1145C6.98906 10.1145 6.73594 9.61172 6.73594 8.86992C6.73594 7.70273 7.41094 6.83086 8.25469 6.83086C8.97188 6.83086 9.31641 7.36875 9.31641 8.01211C9.31641 8.73281 8.85586 9.80859 8.62031 10.807C8.42344 11.6437 9.03867 12.3223 9.86484 12.3223C11.3555 12.3223 12.3609 10.4062 12.3609 8.13516C12.3609 6.40898 11.1973 5.11875 9.08437 5.11875C6.69727 5.11875 5.20664 6.90117 5.20664 8.89101C5.20664 9.57656 5.41055 10.0617 5.72695 10.4344C5.87109 10.6066 5.89219 10.677 5.83945 10.8738C5.80078 11.018 5.71641 11.366 5.67773 11.5066C5.625 11.707 5.46328 11.7773 5.28398 11.7035C4.18359 11.2535 3.67031 10.0512 3.67031 8.69414C3.67031 6.4582 5.5582 3.77578 9.29883 3.77578C12.3047 3.77578 14.284 5.95195 14.284 8.28633C14.284 11.3766 12.5648 13.6828 10.0336 13.6828C9.18281 13.6828 8.38477 13.2223 8.11055 12.702C8.11055 12.702 7.65352 14.516 7.55508 14.8676C7.38984 15.4758 7.06289 16.0805 6.76406 16.5551C7.4707 16.7625 8.21953 16.8785 8.99648 16.8785C13.3453 16.8785 16.8715 13.3523 16.8715 9.00351C16.875 4.65117 13.3488 1.125 9 1.125Z" fill="white" fill-opacity="0.8"/>
</svg>
