<svg width="12" height="11" viewBox="0 0 12 11" fill="none" xmlns="http://www.w3.org/2000/svg">
<path d="M5.33418 1.04895C5.54418 0.404255 6.45628 0.404255 6.66558 1.04895L7.41458 3.35335C7.46034 3.4937 7.5493 3.61598 7.66873 3.70273C7.78817 3.78948 7.93197 3.83625 8.07958 3.83635H10.503C11.1813 3.83635 11.4627 4.70435 10.9146 5.10335L8.95458 6.52715C8.83491 6.61398 8.74579 6.73646 8.70002 6.87705C8.65424 7.01764 8.65416 7.16912 8.69978 7.30975L9.44878 9.61415C9.65878 10.2589 8.92028 10.7958 8.37078 10.3968L6.41078 8.97295C6.29123 8.88616 6.14728 8.83941 5.99953 8.83941C5.85179 8.83941 5.70784 8.88616 5.58828 8.97295L3.62828 10.3968C3.07948 10.7958 2.34168 10.2589 2.55098 9.61415L3.29998 7.30975C3.34561 7.16912 3.34552 7.01764 3.29975 6.87705C3.25398 6.73646 3.16486 6.61398 3.04518 6.52715L1.08588 5.10405C0.537784 4.70505 0.819884 3.83705 1.49748 3.83705H3.92018C4.06792 3.83709 4.21188 3.79039 4.33145 3.70363C4.45103 3.61688 4.54009 3.49451 4.58588 3.35405L5.33488 1.04965L5.33418 1.04895Z" fill="#F0CC84"/>
</svg>
