<svg width="70" height="14" viewBox="0 0 70 14" fill="none" xmlns="http://www.w3.org/2000/svg">
<path d="M6.33431 2.04889C6.54431 1.40419 7.45641 1.40419 7.66571 2.04889L8.41471 4.35329C8.46047 4.49364 8.54942 4.61592 8.66886 4.70267C8.78829 4.78941 8.93209 4.83618 9.07971 4.83629H11.5031C12.1814 4.83629 12.4628 5.70429 11.9147 6.10329L9.95471 7.52709C9.83503 7.61391 9.74591 7.7364 9.70014 7.87699C9.65437 8.01758 9.65428 8.16905 9.69991 8.30969L10.4489 10.6141C10.6589 11.2588 9.92041 11.7957 9.37091 11.3967L7.41091 9.97289C7.29135 9.8861 7.1474 9.83935 6.99966 9.83935C6.85192 9.83935 6.70796 9.8861 6.58841 9.97289L4.62841 11.3967C4.07961 11.7957 3.34181 11.2588 3.55111 10.6141L4.30011 8.30969C4.34573 8.16905 4.34565 8.01758 4.29987 7.87699C4.2541 7.7364 4.16498 7.61391 4.04531 7.52709L2.08601 6.10399C1.53791 5.70499 1.82001 4.83699 2.49761 4.83699H4.92031C5.06804 4.83703 5.212 4.79033 5.33157 4.70357C5.45115 4.61681 5.54021 4.49445 5.58601 4.35399L6.33501 2.04959L6.33431 2.04889Z" fill="#F0CC84"/>
<path d="M20.3343 2.04889C20.5443 1.40419 21.4564 1.40419 21.6657 2.04889L22.4147 4.35329C22.4605 4.49364 22.5494 4.61592 22.6689 4.70267C22.7883 4.78941 22.9321 4.83618 23.0797 4.83629H25.5031C26.1814 4.83629 26.4628 5.70429 25.9147 6.10329L23.9547 7.52709C23.835 7.61391 23.7459 7.7364 23.7001 7.87699C23.6544 8.01758 23.6543 8.16905 23.6999 8.30969L24.4489 10.6141C24.6589 11.2588 23.9204 11.7957 23.3709 11.3967L21.4109 9.97289C21.2914 9.8861 21.1474 9.83935 20.9997 9.83935C20.8519 9.83935 20.708 9.8861 20.5884 9.97289L18.6284 11.3967C18.0796 11.7957 17.3418 11.2588 17.5511 10.6141L18.3001 8.30969C18.3457 8.16905 18.3456 8.01758 18.2999 7.87699C18.2541 7.7364 18.165 7.61391 18.0453 7.52709L16.086 6.10399C15.5379 5.70499 15.82 4.83699 16.4976 4.83699H18.9203C19.068 4.83703 19.212 4.79033 19.3316 4.70357C19.4511 4.61681 19.5402 4.49445 19.586 4.35399L20.335 2.04959L20.3343 2.04889Z" fill="#F0CC84"/>
<path d="M34.3343 2.04889C34.5443 1.40419 35.4564 1.40419 35.6657 2.04889L36.4147 4.35329C36.4605 4.49364 36.5494 4.61592 36.6689 4.70267C36.7883 4.78941 36.9321 4.83618 37.0797 4.83629H39.5031C40.1814 4.83629 40.4628 5.70429 39.9147 6.10329L37.9547 7.52709C37.835 7.61391 37.7459 7.7364 37.7001 7.87699C37.6544 8.01758 37.6543 8.16905 37.6999 8.30969L38.4489 10.6141C38.6589 11.2588 37.9204 11.7957 37.3709 11.3967L35.4109 9.97289C35.2914 9.8861 35.1474 9.83935 34.9997 9.83935C34.8519 9.83935 34.708 9.8861 34.5884 9.97289L32.6284 11.3967C32.0796 11.7957 31.3418 11.2588 31.5511 10.6141L32.3001 8.30969C32.3457 8.16905 32.3456 8.01758 32.2999 7.87699C32.2541 7.7364 32.165 7.61391 32.0453 7.52709L30.086 6.10399C29.5379 5.70499 29.82 4.83699 30.4976 4.83699H32.9203C33.068 4.83703 33.212 4.79033 33.3316 4.70357C33.4511 4.61681 33.5402 4.49445 33.586 4.35399L34.335 2.04959L34.3343 2.04889Z" fill="#F0CC84"/>
<path d="M48.3343 2.04889C48.5443 1.40419 49.4564 1.40419 49.6657 2.04889L50.4147 4.35329C50.4605 4.49364 50.5494 4.61592 50.6689 4.70267C50.7883 4.78941 50.9321 4.83618 51.0797 4.83629H53.5031C54.1814 4.83629 54.4628 5.70429 53.9147 6.10329L51.9547 7.52709C51.835 7.61391 51.7459 7.7364 51.7001 7.87699C51.6544 8.01758 51.6543 8.16905 51.6999 8.30969L52.4489 10.6141C52.6589 11.2588 51.9204 11.7957 51.3709 11.3967L49.4109 9.97289C49.2914 9.8861 49.1474 9.83935 48.9997 9.83935C48.8519 9.83935 48.708 9.8861 48.5884 9.97289L46.6284 11.3967C46.0796 11.7957 45.3418 11.2588 45.5511 10.6141L46.3001 8.30969C46.3457 8.16905 46.3456 8.01758 46.2999 7.87699C46.2541 7.7364 46.165 7.61391 46.0453 7.52709L44.086 6.10399C43.5379 5.70499 43.82 4.83699 44.4976 4.83699H46.9203C47.068 4.83703 47.212 4.79033 47.3316 4.70357C47.4511 4.61681 47.5402 4.49445 47.586 4.35399L48.335 2.04959L48.3343 2.04889Z" fill="#F0CC84"/>
<path d="M62.3343 2.04889C62.5443 1.40419 63.4564 1.40419 63.6657 2.04889L64.4147 4.35329C64.4605 4.49364 64.5494 4.61592 64.6689 4.70267C64.7883 4.78941 64.9321 4.83618 65.0797 4.83629H67.5031C68.1814 4.83629 68.4628 5.70429 67.9147 6.10329L65.9547 7.52709C65.835 7.61391 65.7459 7.7364 65.7001 7.87699C65.6544 8.01758 65.6543 8.16905 65.6999 8.30969L66.4489 10.6141C66.6589 11.2588 65.9204 11.7957 65.3709 11.3967L63.4109 9.97289C63.2914 9.8861 63.1474 9.83935 62.9997 9.83935C62.8519 9.83935 62.708 9.8861 62.5884 9.97289L60.6284 11.3967C60.0796 11.7957 59.3418 11.2588 59.5511 10.6141L60.3001 8.30969C60.3457 8.16905 60.3456 8.01758 60.2999 7.87699C60.2541 7.7364 60.165 7.61391 60.0453 7.52709L58.086 6.10399C57.5379 5.70499 57.82 4.83699 58.4976 4.83699H60.9203C61.068 4.83703 61.212 4.79033 61.3316 4.70357C61.4511 4.61681 61.5402 4.49445 61.586 4.35399L62.335 2.04959L62.3343 2.04889Z" fill="#E6E6E6"/>
</svg>
