<svg width="18" height="18" viewBox="0 0 18 18" fill="none" xmlns="http://www.w3.org/2000/svg">
<path d="M17.2969 3.84961C16.6852 4.12031 16.0312 4.30313 15.3422 4.3875C16.0453 3.96563 16.5867 3.29766 16.8398 2.50312C16.1824 2.89336 15.4547 3.17812 14.6777 3.3293C14.0555 2.66484 13.1695 2.25 12.1922 2.25C10.3113 2.25 8.78906 3.77578 8.78906 5.65664C8.78906 5.92383 8.81718 6.18398 8.87695 6.43359C6.04687 6.29297 3.53671 4.93594 1.85976 2.87227C1.56796 3.375 1.39921 3.96211 1.39921 4.58437C1.39921 5.76562 2.0039 6.80977 2.91796 7.42148C2.35546 7.40742 1.82812 7.25273 1.37109 6.99609V7.03828C1.37109 8.69062 2.54531 10.0652 4.10273 10.3781C3.81796 10.4555 3.51562 10.4977 3.20624 10.4977C2.98828 10.4977 2.77382 10.4766 2.5664 10.4344C2.99882 11.7879 4.25742 12.7723 5.74804 12.8004C4.58437 13.7145 3.11484 14.2594 1.51874 14.2594C1.24453 14.2594 0.973822 14.2418 0.706635 14.2102C2.20781 15.1875 3.99726 15.75 5.91679 15.75C12.1852 15.75 15.6094 10.5574 15.6094 6.05391C15.6094 5.90625 15.6059 5.75859 15.5988 5.61445C16.2633 5.13281 16.8398 4.53516 17.2969 3.84961Z" fill="white" fill-opacity="0.8"/>
</svg>
