<svg width="20" height="20" viewBox="0 0 20 20" fill="none" xmlns="http://www.w3.org/2000/svg">
<path d="M10 19H13M1 4L4 5L1 4ZM4 5L1 14C1.8657 14.649 2.91852 14.9999 4.0005 14.9999C5.08248 14.9999 6.1353 14.649 7.001 14L4 5ZM4 5L7 14L4 5ZM4 5L10 3L4 5ZM16 5L19 4L16 5ZM16 5L13 14C13.8657 14.649 14.9185 14.9999 16.0005 14.9999C17.0825 14.9999 18.1353 14.649 19.001 14L16 5ZM16 5L19 14L16 5ZM16 5L10 3L16 5ZM10 1V3V1ZM10 19V3V19ZM10 19H7H10Z" stroke="#121212" stroke-linecap="round" stroke-linejoin="round"/>
</svg>
